<svg width="16" height="16" viewBox="0 0 16 16" fill="none" xmlns="http://www.w3.org/2000/svg">
<path d="M14 0H2C0.89543 0 0 0.89543 0 2V14C0 15.1046 0.89543 16 2 16H14C15.1046 16 16 15.1046 16 14V2C16 0.89543 15.1046 0 14 0Z" fill="white"/>
<path d="M14.25 4.12338C13.7901 4.32746 13.296 4.46519 12.7773 4.52725C13.3065 4.20986 13.7132 3.70714 13.9048 3.10858C13.4093 3.40247 12.8603 3.61565 12.276 3.73072C11.8085 3.23221 11.1417 2.9209 10.4044 2.9209C8.98795 2.9209 7.8396 4.06925 7.8396 5.48548C7.8396 5.68641 7.86234 5.88203 7.90614 6.06998C5.77464 5.96275 3.88517 4.94202 2.62028 3.3902C2.39949 3.76898 2.27307 4.20937 2.27307 4.67964C2.27307 5.56939 2.72565 6.35421 3.41384 6.81411C2.99366 6.80072 2.5983 6.68547 2.25228 6.49344C2.25214 6.50399 2.25214 6.51481 2.25214 6.52562C2.25214 7.76808 3.13621 8.80451 4.30926 9.04051C4.09405 9.0988 3.8674 9.13036 3.63379 9.13036C3.46832 9.13036 3.30781 9.11383 3.15137 9.08422C3.47763 10.1029 4.42482 10.8444 5.5468 10.8651C4.66933 11.5531 3.56349 11.9631 2.36168 11.9631C2.15489 11.9631 1.95076 11.9509 1.75 11.9269C2.88519 12.6549 4.23315 13.0795 5.68133 13.0795C10.3983 13.0795 12.9779 9.17176 12.9779 5.78291C12.9779 5.67147 12.9754 5.56097 12.9706 5.4509C13.4713 5.08923 13.9064 4.63775 14.25 4.12338Z" fill="#777777"/>
</svg>
