<svg width="16" height="16" viewBox="0 0 16 16" fill="none" xmlns="http://www.w3.org/2000/svg">
<path d="M14 0H2C0.89543 0 0 0.89543 0 2V14C0 15.1046 0.89543 16 2 16H14C15.1046 16 16 15.1046 16 14V2C16 0.89543 15.1046 0 14 0Z" fill="white"/>
<path d="M8.96726 14.25V8.54805H10.8811L11.1677 6.32609H8.96731V4.9075C8.96731 4.26412 9.14608 3.82564 10.0684 3.82564L11.2451 3.82529V1.83775C11.0417 1.81044 10.3433 1.75 9.53052 1.75C7.83402 1.75 6.67271 2.78581 6.67271 4.68744V6.3261H4.75391V8.54806H6.67267V14.25H8.96726V14.25Z" fill="#777777"/>
</svg>
