<svg width="16" height="16" viewBox="0 0 16 16" fill="none" xmlns="http://www.w3.org/2000/svg">
<path d="M16 12.3469C16 14.3656 14.3656 16 12.3469 16H3.65313C1.63438 16 0 14.3656 0 12.3469V3.65625C0 1.6375 1.6375 0 3.65625 0H12.2906C14.3406 0 16 1.65937 16 3.70937V12.3469Z" fill="white"/>
<path d="M10.225 2.20654H5.775C3.80313 2.20654 2.20312 3.80654 2.20312 5.77842V10.2253C2.20312 12.1972 3.8 13.794 5.775 13.794H10.2219C12.1938 13.794 13.7906 12.1972 13.7906 10.2253V5.77842C13.7938 3.80342 12.1969 2.20654 10.225 2.20654ZM12.6813 9.79717C12.6813 11.3909 11.3906 12.6815 9.79688 12.6815H6.20313C4.60938 12.6815 3.31875 11.3909 3.31875 9.79717V6.20342C3.31875 4.60967 4.60938 3.31904 6.20313 3.31904H9.79688C11.3906 3.31904 12.6813 4.61279 12.6813 6.20342V9.79717Z" fill="#777777"/>
<path d="M8.15591 4.96924C6.46841 4.96924 5.10278 6.33486 5.10278 8.02236C5.10278 9.70674 6.46841 11.0755 8.15591 11.0755C9.84028 11.0755 11.209 9.70986 11.209 8.02236C11.2059 6.33486 9.84028 4.96924 8.15591 4.96924ZM8.15591 9.85674C7.14028 9.85674 6.31841 9.03486 6.31841 8.01924C6.31841 7.00361 7.14028 6.18174 8.15591 6.18174C9.16841 6.18174 9.99341 7.00361 9.99341 8.01924C9.99028 9.03486 9.16841 9.85674 8.15591 9.85674Z" fill="#777777"/>
<path d="M11.7719 4.92241C11.7719 5.35054 11.425 5.69741 10.9969 5.69741C10.5688 5.69741 10.2219 5.35054 10.2219 4.92241C10.2219 4.49429 10.5688 4.14429 10.9969 4.14429C11.425 4.14429 11.7719 4.49116 11.7719 4.92241Z" fill="#777777"/>
</svg>
